<?xml version="1.0" encoding="UTF-8"?>
<svg width="48px" height="48px" viewBox="0 0 48 48" version="1.1" xmlns="http://www.w3.org/2000/svg" xmlns:xlink="http://www.w3.org/1999/xlink">
    <!-- Generator: Sketch 55 (78076) - https://sketchapp.com -->
    <title>Custom Preset 11</title>
    <desc>Created with Sketch.</desc>
    <g id="Custom-Preset-11" stroke="none" stroke-width="1" fill="none" fill-rule="evenodd">
        <g id="Group" transform="translate(0.000000, 3.000000)" fill="#000000" fill-rule="nonzero">
            <path d="M0.325068922,12.4999351 C0.004331912,13.1883193 -0.102580425,13.9296561 0.111244249,14.6709929 L4.17391304,28.173913 L4.17391304,10.4347826 L1.98221014,11.0702141 C1.28727995,11.3349773 0.699262101,11.8115509 0.325068922,12.4999351 Z" id="Path"></path>
            <path d="M8.81583129,39.3755481 C9.17983533,40.8841569 10.4278492,41.8496666 11.7278636,41.7289779 C11.935866,41.7289779 12.0918677,41.6686336 12.29987,41.6082892 L24,37.5652174 L8.34782609,37.5652174 L8.81583129,39.3755481 Z" id="Path"></path>
            <path d="M45.2523955,3.58552311 L40.7940183,3.58552311 L40.3792855,2.0908488 C40.0163944,0.756318169 38.7721961,-0.0977814358 37.4761562,0.00898101481 C37.2687898,0.00898101481 37.113265,0.0623622401 36.9058986,0.115743465 L25.6044309,3.58552311 L10.0519524,3.58552311 C8.54854611,3.58552311 7.30434783,4.92005374 7.30434783,6.5214905 L7.30434783,33.5857717 C7.30434783,35.1872085 8.54854611,36.5217391 10.0519524,36.5217391 L45.2523955,36.5217391 C46.7558017,36.5217391 48,35.1872085 48,33.5857717 L48,6.5214905 C48,4.92005374 46.7558017,3.58552311 45.2523955,3.58552311 Z M10.0519524,5.72077212 L45.2523955,5.72077212 C45.6152866,5.72077212 45.9263362,6.0944407 45.9263362,6.5214905 L45.9263362,26.6995937 L35.2469676,13.4610498 C34.5211853,12.553569 33.2251454,12.553569 32.4993631,13.4610498 L24.2047078,24.0305324 C23.4789255,24.9380132 22.1828856,24.9380132 21.4571033,24.0305324 L17.8281916,19.4931283 C17.1024093,18.5856474 15.8063694,18.5856474 15.0805871,19.4931283 L9.37801163,26.53945 L9.37801163,6.5214905 C9.37801163,6.0944407 9.6890612,5.72077212 10.0519524,5.72077212 Z" id="Shape"></path>
            <circle id="Oval" cx="21.3913043" cy="12" r="3.65217391"></circle>
        </g>
    </g>
</svg>